<?xml version="1.0" encoding="UTF-8" standalone="no"?>
<svg width="46px" height="30px" viewBox="0 0 46 30" version="1.1" xmlns="http://www.w3.org/2000/svg" xmlns:xlink="http://www.w3.org/1999/xlink">
    <!-- Generator: Sketch 3.8.3 (29802) - http://www.bohemiancoding.com/sketch -->
    <title>uEA01-terminal</title>
    <desc>Created with Sketch.</desc>
    <defs></defs>
    <g id="Landing" stroke="none" stroke-width="1" fill="none" fill-rule="evenodd">
        <g id="Desktop-HD" transform="translate(-29.000000, -24.000000)" fill="#FFFFFF">
            <g id="uEA01-terminal" transform="translate(29.000000, 24.000000)">
                <g id="Capa_1">
                    <g id="Group">
                        <path d="M45.5004265,26.6239773 C45.3353676,26.4572727 45.1239706,26.3740909 44.8669118,26.3740909 L18.4118382,26.3740909 C18.1547794,26.3740909 17.9433824,26.4572727 17.7779853,26.6239773 C17.6129265,26.7906818 17.5303971,27.0034091 17.5303971,27.2628409 L17.5303971,29.0406818 C17.5303971,29.2997727 17.6129265,29.5128409 17.7779853,29.6792045 C17.9433824,29.8455682 18.1547794,29.9290909 18.4118382,29.9290909 L44.8669118,29.9290909 C45.1239706,29.9290909 45.3353676,29.8455682 45.5004265,29.6792045 C45.6654853,29.5128409 45.7480147,29.2997727 45.7480147,29.0406818 L45.7480147,27.2628409 C45.7483529,27.0034091 45.6658235,26.7906818 45.5004265,26.6239773 L45.5004265,26.6239773 Z" id="Shape"></path>
                        <path d="M3.17264706,0.348409091 C2.98898529,0.163295455 2.77758824,0.0705681818 2.53879412,0.0705681818 C2.3,0.0705681818 2.08894118,0.163295455 1.90527941,0.348409091 L0.527308824,1.73727273 C0.343647059,1.92238636 0.251985294,2.13511364 0.251985294,2.37613636 C0.251985294,2.61715909 0.343647059,2.82988636 0.527308824,3.015 L11.3576029,13.9305682 L0.527308824,24.8464773 C0.343647059,25.0315909 0.251985294,25.2446591 0.251985294,25.485 C0.251985294,25.7260227 0.343647059,25.93875 0.527308824,26.1238636 L1.90527941,27.5123864 C2.08894118,27.6978409 2.3,27.7898864 2.53879412,27.7898864 C2.77758824,27.7898864 2.98898529,27.6975 3.17264706,27.5123864 L16.0144265,14.5694318 C16.1980882,14.3843182 16.28975,14.1709091 16.28975,13.9302273 C16.28975,13.6895455 16.1980882,13.4764773 16.0144265,13.2913636 L3.17264706,0.348409091 L3.17264706,0.348409091 Z" id="Shape"></path>
                    </g>
                </g>
            </g>
        </g>
    </g>
</svg>